<svg width="13" height="13" viewBox="0 0 13 13" fill="none" xmlns="http://www.w3.org/2000/svg">
<g clip-path="url(#clip0_3_162)">
<path fill-rule="evenodd" clip-rule="evenodd" d="M5.46812 9.93279C2.91281 9.93279 0.84135 7.8975 0.84135 5.38281C0.84135 2.86812 2.91281 0.828766 5.46812 0.828766C8.02343 0.828766 10.0953 2.86812 10.0953 5.38281C10.0953 7.8975 8.02343 9.93279 5.46812 9.93279ZM12.8732 12.2891L9.51803 8.98625C10.3963 8.03156 10.9363 6.77219 10.9363 5.38281C10.9363 2.40906 8.48818 0 5.46812 0C2.44806 0 0 2.40906 0 5.38281C0 8.3525 2.44806 10.7616 5.46812 10.7616C6.773 10.7616 7.96982 10.3106 8.90988 9.55907L12.2785 12.874C12.443 13.0365 12.7091 13.0365 12.8732 12.874C13.0378 12.7156 13.0378 12.4516 12.8732 12.2891Z" fill="black"/>
<g clip-path="url(#clip1_3_162)">
<path d="M8.12951 4.9119L5.59857 2.38096C5.52797 2.31037 5.43541 2.27502 5.34294 2.27502C5.25047 2.27502 5.15791 2.31037 5.08732 2.38096L2.55638 4.9119C2.41519 5.05345 2.42224 5.27491 2.56343 5.4161C2.70498 5.55801 2.91189 5.57889 3.05353 5.43725L3.177 5.31369V7.69846C3.177 7.89832 3.33871 8.06002 3.53857 8.06002H4.98482V6.61377H5.70794V8.06002H7.15419C7.35405 8.06002 7.51575 7.89832 7.51575 7.69846V5.32074L7.62377 5.42875C7.76496 5.56994 7.98072 5.55729 8.12237 5.41601C8.26365 5.27491 8.27106 5.05309 8.12951 4.9119Z" fill="#231F20"/>
</g>
</g>
<defs>
<clipPath id="clip0_3_162">
<rect width="13" height="13" fill="white"/>
</clipPath>
<clipPath id="clip1_3_162">
<rect width="5.785" height="5.785" fill="white" transform="translate(2.45374 2.27502)"/>
</clipPath>
</defs>
</svg>
