<svg width="18" height="18" viewBox="0 0 18 18" fill="none" xmlns="http://www.w3.org/2000/svg">
<path d="M12.1641 3.12891V4.12734H5.96249V3.12891H3.64218V16.7906H14.4844V3.12891H12.1641ZM6.36328 13.268C5.93437 13.268 5.58984 12.9234 5.58984 12.4945C5.58984 12.0656 5.93437 11.7211 6.36328 11.7211C6.79218 11.7211 7.13671 12.0656 7.13671 12.4945C7.13671 12.9164 6.79218 13.268 6.36328 13.268ZM6.36328 10.6734C5.93437 10.6734 5.58984 10.3289 5.58984 9.9C5.58984 9.47109 5.93437 9.12656 6.36328 9.12656C6.79218 9.12656 7.13671 9.47109 7.13671 9.9C7.13671 10.3289 6.79218 10.6734 6.36328 10.6734ZM6.36328 8.08594C5.93437 8.08594 5.58984 7.74141 5.58984 7.3125C5.58984 6.88359 5.93437 6.53906 6.36328 6.53906C6.79218 6.53906 7.13671 6.88359 7.13671 7.3125C7.13671 7.74141 6.79218 8.08594 6.36328 8.08594ZM12.5367 13.0852H7.93124V11.9039H12.5367V13.0852ZM12.5367 10.4906H7.93124V9.30937H12.5367V10.4906ZM12.5367 7.90313H7.93124V6.72187H12.5367V7.90313Z" fill="#0FD259"/>
<path d="M9.90702 2.27822C9.89296 1.82119 9.5203 1.45557 9.06327 1.45557C8.60624 1.45557 8.23358 1.82119 8.21952 2.27822H6.54608V3.67744H11.5734V2.27822H9.90702ZM9.06327 2.68604C8.85233 2.68604 8.67655 2.51025 8.67655 2.29932C8.67655 2.29229 8.67655 2.28525 8.67655 2.27822C8.69061 2.07432 8.85936 1.9126 9.06327 1.9126C9.26717 1.9126 9.43592 2.07432 9.44999 2.27822C9.44999 2.28525 9.44999 2.29229 9.44999 2.29932C9.44999 2.51025 9.27421 2.68604 9.06327 2.68604Z" fill="#0FD259"/>
</svg>
