<svg width="110" height="110" viewBox="0 0 110 110" fill="none" xmlns="http://www.w3.org/2000/svg">
<path d="M98.5724 81.1181L56.2346 105.969L11.5 81.0648V28.4561L56.2352 4.01314L98.5724 28.403V81.1181Z" stroke="#0FD259" stroke-width="7"/>
<path d="M33.3152 46.8746V36.899L32.5117 36.948V30.8039L40.2629 30.7549V36.8059H39.4593V42.6658L33.3152 46.8746Z" fill="#AB5832"/>
<path d="M55.339 34.3267L33.0752 56.6983L33.2466 77.3795L77.2206 76.9631L77.2843 54.9149L55.339 34.3267Z" fill="#FFF3E1"/>
<path d="M32.2422 73.7489L33.7807 72.9013V56.2034L32.35 57.1589C32.3451 57.1589 32.5068 73.7489 32.2422 73.7489Z" fill="#5F4E47"/>
<path d="M76.4514 57.105V72.7984L77.9898 73.646V57.688L76.4514 57.105Z" fill="#5F4E47"/>
<path d="M55.4908 36.7177L32.3451 58.3788V52.9158L55.5153 30.9705L77.9898 54.2436V58.8541L55.4908 36.7177Z" fill="#BCAA93"/>
<path d="M30.0766 51.98L28.7194 54.4837L32.3598 54.4298C32.3598 54.4298 55.0695 32.3424 55.5594 32.3228C56.1523 32.2983 77.98 54.8168 77.98 54.8168L81.2089 54.7678L56.9852 28.6726L53.4281 28.4374L30.0766 51.98Z" fill="#AB5832"/>
<path d="M25.8874 53.8565C25.5053 54.322 25.8825 54.5669 26.1912 54.5669C26.4999 54.5669 30.057 54.4641 30.057 54.4641L54.5746 30.6079C54.5746 30.6079 55.1381 30.0297 55.5398 30.0493C55.9759 30.0689 56.5394 30.6226 56.5394 30.6226L81.1746 54.7727C81.1746 54.7727 83.982 54.7825 84.4279 54.6698C84.913 54.5522 84.668 54.0917 84.0702 53.4498C83.6293 52.9746 58.7246 28.3394 58.313 27.9131C57.0881 26.649 56.4904 25.9141 55.3341 25.9631C54.1729 26.0121 53.4869 26.8695 52.3257 27.9376C51.9827 28.261 26.0491 53.6605 25.8874 53.8565Z" fill="#ED6C31"/>
<path d="M69.7389 62.4994H74.761V58.3201C74.761 58.1354 74.7246 57.9525 74.654 57.7819C74.5833 57.6113 74.4797 57.4563 74.3491 57.3257C74.2186 57.1952 74.0635 57.0916 73.8929 57.0209C73.7223 56.9503 73.5395 56.9139 73.3548 56.9139H69.7389V62.4994Z" fill="#A6CFD5"/>
<path d="M68.2298 62.4994V56.9139H64.3101C64.1255 56.9139 63.9426 56.9503 63.772 57.0209C63.6014 57.0916 63.4464 57.1952 63.3158 57.3257C63.1852 57.4563 63.0817 57.6113 63.011 57.7819C62.9403 57.9525 62.9039 58.1354 62.9039 58.3201V62.5043H68.2298V62.4994Z" fill="#A6CFD5"/>
<path d="M68.2298 64.0869H62.904V68.0066C62.904 68.3795 63.0521 68.7372 63.3158 69.0009C63.5795 69.2646 63.9372 69.4128 64.3101 69.4128H68.2298V64.0869Z" fill="#A6CFD5"/>
<path d="M69.7389 64.0869V69.4128H73.3548C73.7277 69.4128 74.0854 69.2646 74.3491 69.0009C74.6128 68.7372 74.761 68.3795 74.761 68.0066V64.0869H69.7389Z" fill="#A6CFD5"/>
<path d="M41.9336 62.4994H46.9557V58.3201C46.9557 58.1354 46.9194 57.9525 46.8487 57.7819C46.778 57.6113 46.6745 57.4563 46.5439 57.3257C46.4133 57.1952 46.2583 57.0916 46.0877 57.0209C45.9171 56.9503 45.7342 56.9139 45.5496 56.9139H41.9336V62.4994Z" fill="#A6CFD5"/>
<path d="M40.4197 62.4994V56.9139H36.5C36.3153 56.9139 36.1325 56.9503 35.9619 57.0209C35.7913 57.0916 35.6362 57.1952 35.5057 57.3257C35.3751 57.4563 35.2715 57.6113 35.2008 57.7819C35.1302 57.9525 35.0938 58.1354 35.0938 58.3201V62.5043H40.4197V62.4994Z" fill="#A6CFD5"/>
<path d="M40.4197 64.0869H35.0987V68.0066C35.0987 68.3795 35.2468 68.7372 35.5106 69.0009C35.7743 69.2646 36.1319 69.4128 36.5049 69.4128H40.4246V64.0869H40.4197Z" fill="#A6CFD5"/>
<path d="M41.9336 64.0869V69.4128H45.5496C45.9225 69.4128 46.2802 69.2646 46.5439 69.0009C46.8076 68.7372 46.9557 68.3795 46.9557 68.0066V64.0869H41.9336Z" fill="#A6CFD5"/>
<path d="M48.5922 75.1894C48.5922 75.1894 48.5187 63.0678 48.5922 60.0055C48.6657 56.9482 51.5369 54.3024 54.8637 54.4151C58.9794 54.5572 61.096 56.8698 61.2479 59.8537C61.3998 62.8375 61.3998 75.3756 61.3998 75.3756L48.5922 75.1894Z" fill="#D27857"/>
<path d="M50.1258 75.846C50.1258 75.846 50.067 62.9306 50.1258 60.5396C50.1993 57.5753 52.4335 56.0173 55.0303 56.1643C58.0533 56.3357 59.5477 57.9428 59.6653 60.2799C59.7829 62.6121 59.7829 75.8558 59.7829 75.8558L50.1258 75.846Z" fill="#AB5932"/>
<path d="M58.2199 65.3167C58.2101 63.1903 58.1905 61.3137 58.1611 60.7405C58.0827 59.1971 56.9852 57.9967 54.8539 57.9232C53.1341 57.8644 51.7182 59.2069 51.679 60.7895C51.6643 61.3725 51.6692 63.205 51.679 65.2922L58.2199 65.3167Z" fill="#D27857"/>
<path d="M51.6937 67.7028C51.7133 70.5495 51.7378 73.1708 51.7378 73.1708L58.2395 73.1904C58.2395 73.1904 58.2395 70.5789 58.2297 67.7322L51.6937 67.7028Z" fill="#D27857"/>
<path d="M58.2395 66.4093C58.215 67.1001 58.4943 67.6587 59.3125 67.6587C60.1308 67.6587 60.4297 67.2765 60.4885 66.5367C60.5374 65.8752 60.0818 65.2873 59.3125 65.3363C58.5482 65.3902 58.2591 65.9242 58.2395 66.4093Z" fill="#FFBA02"/>
<path d="M62.9333 79.8832C62.9333 79.8832 68.2641 79.9371 72.1152 79.8244C75.9663 79.7117 78.7542 79.8832 79.3274 79.3051C79.9007 78.7318 79.8909 73.8469 77.2206 72.524C74.7659 71.3089 73.1784 72.5436 72.3357 72.6269C71.2235 72.7396 69.8467 72.0488 68.8374 72.0292C64.6678 71.941 63.2077 75.2188 63.2077 75.2188L62.9333 79.8832Z" fill="#728037"/>
<path d="M31.0467 79.4815C31.4926 79.8979 34.8978 79.9126 39.0086 79.8832C43.1193 79.8538 46.4266 79.893 46.4266 79.893L47.1125 75.7431L46.2796 75.0522C46.2796 75.0522 46.3727 72.9748 43.7514 72.2644C41.9385 71.7744 40.3609 72.5828 38.8371 72.6073C37.3133 72.6367 35.9071 71.9459 34.2119 72.3476C32.6342 72.72 31.4044 73.7489 30.9046 75.8264C30.5568 77.2668 30.645 79.1042 31.0467 79.4815Z" fill="#728037"/>
<path d="M45.9366 84.2243L45.9709 79.8881H46.2894L46.2845 75.0571H63.3008L63.242 79.8881H63.6144V84.1116C63.6095 84.1067 45.9366 84.2488 45.9366 84.2243Z" fill="#B0B0B0"/>
<path d="M63.6095 82.3281V84.1067L45.9317 84.2243L45.9464 82.3134L63.6095 82.3281Z" fill="#9B9B9B"/>
<path d="M46.2796 78.0067L63.2567 78.0115V79.8832H46.2796V78.0067Z" fill="#9B9B9B"/>
</svg>
