<svg width="18" height="18" viewBox="0 0 18 18" fill="none" xmlns="http://www.w3.org/2000/svg">
<g clip-path="url(#clip0_11_564)">
<path fill-rule="evenodd" clip-rule="evenodd" d="M7.57125 13.7531C4.03312 13.7531 1.16495 10.935 1.16495 7.45312C1.16495 3.97125 4.03312 1.14752 7.57125 1.14752C11.1094 1.14752 13.9781 3.97125 13.9781 7.45312C13.9781 10.935 11.1094 13.7531 7.57125 13.7531ZM17.8245 17.0156L13.1788 12.4425C14.3949 11.1206 15.1425 9.37688 15.1425 7.45312C15.1425 3.33562 11.7529 0 7.57125 0C3.38962 0 0 3.33562 0 7.45312C0 11.565 3.38962 14.9006 7.57125 14.9006C9.378 14.9006 11.0351 14.2763 12.3368 13.2356L17.001 17.8256C17.2288 18.0506 17.5972 18.0506 17.8245 17.8256C18.0523 17.6062 18.0523 17.2406 17.8245 17.0156Z" fill="white"/>
<g clip-path="url(#clip1_11_564)">
<path d="M11.2562 6.80096L7.75179 3.29659C7.65405 3.19884 7.52589 3.1499 7.39785 3.1499C7.26982 3.1499 7.14166 3.19884 7.04391 3.29659L3.53954 6.80096C3.34404 6.99696 3.3538 7.30359 3.5493 7.49908C3.74529 7.69558 4.03178 7.72449 4.2279 7.52837L4.39886 7.35728V10.6593C4.39886 10.936 4.62276 11.1599 4.89948 11.1599H6.90198V9.1574H7.90323V11.1599H9.90573C10.1825 11.1599 10.4064 10.936 10.4064 10.6593V7.36704L10.5559 7.5166C10.7514 7.7121 11.0502 7.69458 11.2463 7.49896C11.4419 7.30359 11.4522 6.99645 11.2562 6.80096Z" fill="white"/>
</g>
</g>
<defs>
<clipPath id="clip0_11_564">
<rect width="18" height="18" fill="white"/>
</clipPath>
<clipPath id="clip1_11_564">
<rect width="8.01" height="8.01" fill="white" transform="translate(3.39752 3.1499)"/>
</clipPath>
</defs>
</svg>
