<svg width="51" height="53" viewBox="0 0 51 53" fill="none" xmlns="http://www.w3.org/2000/svg">
<path fill-rule="evenodd" clip-rule="evenodd" d="M22.7093 21.6536C20.6836 24.9092 21.0789 29.185 23.664 31.9802C26.2075 34.7362 30.2995 35.1672 33.3234 32.9978C33.9591 32.5431 34.5258 31.9921 35.0044 31.3633C35.475 30.7449 35.8577 30.0595 36.1406 29.3281C36.7212 27.8257 36.8714 26.181 36.5731 24.592C36.2796 23.0175 35.5507 21.5663 34.476 20.4155C33.4174 19.2782 32.0541 18.4981 30.5633 18.1768C29.0784 17.8615 27.5363 18.0242 26.1426 18.6432C24.7358 19.2698 23.5404 20.3178 22.7093 21.6536Z" stroke="#0FD259" stroke-width="2" stroke-linecap="round" stroke-linejoin="round"/>
<path d="M35.9011 30.0759C35.2184 29.5587 34.2612 29.7149 33.7636 30.4247C33.2661 31.1345 33.4164 32.129 34.0994 32.646L35.9011 30.0759ZM38.8791 36.2649C39.5619 36.7819 40.5191 36.6259 41.0166 35.9161C41.5142 35.2064 41.3639 34.2119 40.6809 33.6948L38.8791 36.2649ZM15.3 28.0897C16.145 28.0897 16.83 27.378 16.83 26.4997C16.83 25.6216 16.145 24.9097 15.3 24.9097V28.0897ZM11.22 24.9097C10.375 24.9097 9.69 25.6216 9.69 26.4997C9.69 27.378 10.375 28.0897 11.22 28.0897V24.9097ZM15.3 34.4497C16.145 34.4497 16.83 33.738 16.83 32.8597C16.83 31.9816 16.145 31.2697 15.3 31.2697V34.4497ZM11.22 31.2697C10.375 31.2697 9.69 31.9816 9.69 32.8597C9.69 33.738 10.375 34.4497 11.22 34.4497V31.2697ZM17.34 21.7298C18.185 21.7298 18.87 21.0179 18.87 20.1398C18.87 19.2617 18.185 18.5498 17.34 18.5498V21.7298ZM11.22 18.5498C10.375 18.5498 9.69 19.2617 9.69 20.1398C9.69 21.0179 10.375 21.7298 11.22 21.7298V18.5498ZM34.0994 32.646L38.8791 36.2649L40.6809 33.6948L35.9011 30.0759L34.0994 32.646ZM15.3 24.9097H11.22V28.0897H15.3V24.9097ZM15.3 31.2697H11.22V34.4497H15.3V31.2697ZM17.34 18.5498H11.22V21.7298H17.34V18.5498Z" fill="#0FD259"/>
</svg>
