<svg width="70" height="70" viewBox="0 0 70 70" fill="none" xmlns="http://www.w3.org/2000/svg">
<path d="M59.0625 28.4375H58.8809L57.0434 6.38094C56.9472 5.24781 56 4.375 54.8625 4.375H50.1375C49 4.375 48.0528 5.24781 47.9566 6.38094L46.1191 28.4375H43.5663L41.7288 6.38094C41.6347 5.24781 40.6875 4.375 39.55 4.375H34.825C33.6875 4.375 32.7403 5.24781 32.6441 6.38094L30.8066 28.4375H10.9375C7.31281 28.4375 4.375 31.3753 4.375 35V59.0625C4.375 62.6872 7.31281 65.625 10.9375 65.625H26.25H43.75H59.0625C62.6872 65.625 65.625 62.6872 65.625 59.0625V35C65.625 31.3753 62.6872 28.4375 59.0625 28.4375ZM50.1375 6.5625H54.8625L56.6847 28.4375H48.3153L50.1375 6.5625ZM34.825 6.5625H39.55L41.3722 28.4375H33.0028L34.825 6.5625ZM26.25 63.4375V52.5H33.9062V63.4375H26.25ZM36.0938 63.4375V52.5H43.75V63.4375H36.0938ZM63.4375 59.0625C63.4375 61.4753 61.4753 63.4375 59.0625 63.4375H45.9375V52.5C45.9375 51.2925 44.9575 50.3125 43.75 50.3125H26.25C25.0425 50.3125 24.0625 51.2925 24.0625 52.5V63.4375H10.9375C8.52469 63.4375 6.5625 61.4753 6.5625 59.0625V35C6.5625 32.5872 8.52469 30.625 10.9375 30.625H59.0625C61.4753 30.625 63.4375 32.5872 63.4375 35V59.0625ZM17.5 50.3125H13.125C11.9175 50.3125 10.9375 51.2925 10.9375 52.5V56.875C10.9375 58.0825 11.9175 59.0625 13.125 59.0625H17.5C18.7075 59.0625 19.6875 58.0825 19.6875 56.875V52.5C19.6875 51.2925 18.7075 50.3125 17.5 50.3125ZM17.5 56.875H13.125V52.5H17.5V56.875ZM56.875 50.3125H52.5C51.2925 50.3125 50.3125 51.2925 50.3125 52.5V56.875C50.3125 58.0825 51.2925 59.0625 52.5 59.0625H56.875C58.0825 59.0625 59.0625 58.0825 59.0625 56.875V52.5C59.0625 51.2925 58.0825 50.3125 56.875 50.3125ZM56.875 56.875H52.5V52.5H56.875V56.875ZM56.875 37.1875H52.5C51.2925 37.1875 50.3125 38.1675 50.3125 39.375V43.75C50.3125 44.9575 51.2925 45.9375 52.5 45.9375H56.875C58.0825 45.9375 59.0625 44.9575 59.0625 43.75V39.375C59.0625 38.1675 58.0825 37.1875 56.875 37.1875ZM56.875 43.75H52.5V39.375H56.875V43.75ZM43.75 37.1875H39.375C38.1675 37.1875 37.1875 38.1675 37.1875 39.375V43.75C37.1875 44.9575 38.1675 45.9375 39.375 45.9375H43.75C44.9575 45.9375 45.9375 44.9575 45.9375 43.75V39.375C45.9375 38.1675 44.9575 37.1875 43.75 37.1875ZM43.75 43.75H39.375V39.375H43.75V43.75ZM30.625 37.1875H26.25C25.0425 37.1875 24.0625 38.1675 24.0625 39.375V43.75C24.0625 44.9575 25.0425 45.9375 26.25 45.9375H30.625C31.8325 45.9375 32.8125 44.9575 32.8125 43.75V39.375C32.8125 38.1675 31.8325 37.1875 30.625 37.1875ZM30.625 43.75H26.25V39.375H30.625V43.75ZM17.5 37.1875H13.125C11.9175 37.1875 10.9375 38.1675 10.9375 39.375V43.75C10.9375 44.9575 11.9175 45.9375 13.125 45.9375H17.5C18.7075 45.9375 19.6875 44.9575 19.6875 43.75V39.375C19.6875 38.1675 18.7075 37.1875 17.5 37.1875ZM17.5 43.75H13.125V39.375H17.5V43.75Z" fill="#0FD259"/>
</svg>
