<svg width="70" height="70" viewBox="0 0 70 70" fill="none" xmlns="http://www.w3.org/2000/svg">
<path d="M21.0766 48.4297H41.3656C41.9458 48.4297 42.5022 48.1992 42.9124 47.789C43.3227 47.3788 43.5531 46.8224 43.5531 46.2422V18.1875C43.5531 17.6073 43.3227 17.0509 42.9124 16.6407C42.5022 16.2305 41.9458 16 41.3656 16H9.1875C8.60734 16 8.05094 16.2305 7.6407 16.6407C7.23047 17.0509 7 17.6073 7 18.1875V46.2203C7 46.8005 7.23047 47.3569 7.6407 47.7671C8.05094 48.1774 8.60734 48.4078 9.1875 48.4078H12.0312" stroke="#0FD259" stroke-width="3"/>
<path d="M48.1796 48.4297H43.6515V25.7891H54.3812C54.5392 25.7891 54.6953 25.8233 54.8388 25.8894C54.9823 25.9554 55.1097 26.0518 55.2124 26.1719L62.1031 34.4297C62.2661 34.6265 62.3551 34.8741 62.3546 35.1297V48.4297H57.6624" stroke="#0FD259" stroke-width="3"/>
<path d="M16.6796 54.7734C19.3616 54.7734 21.5359 52.5698 21.5359 49.8516C21.5359 47.1333 19.3616 44.9297 16.6796 44.9297C13.9976 44.9297 11.8234 47.1333 11.8234 49.8516C11.8234 52.5698 13.9976 54.7734 16.6796 54.7734Z" stroke="#0FD259" stroke-width="3"/>
<path d="M52.8281 54.7734C55.5101 54.7734 57.6843 52.5698 57.6843 49.8516C57.6843 47.1333 55.5101 44.9297 52.8281 44.9297C50.146 44.9297 47.9718 47.1333 47.9718 49.8516C47.9718 52.5698 50.146 54.7734 52.8281 54.7734Z" stroke="#0FD259" stroke-width="3"/>
</svg>
