<svg width="70" height="70" viewBox="0 0 70 70" fill="none" xmlns="http://www.w3.org/2000/svg">
<path d="M8.75 23.3333L16.6888 29.9489C17.2129 30.3858 17.8737 30.625 18.556 30.625H51.4439C52.1264 30.625 52.787 30.3858 53.3111 29.9489L61.25 23.3333M18.9583 40.8333H18.9875M51.0417 40.8333H51.0708M23.8019 13.125H46.1983C48.2915 13.125 50.2244 14.2467 51.2628 16.0642L59.7129 30.8516C60.72 32.6145 61.25 34.6095 61.25 36.64V53.9583C61.25 55.5692 59.9442 56.875 58.3333 56.875H55.4167C53.8058 56.875 52.5 55.5692 52.5 53.9583V51.0417H17.5V53.9583C17.5 55.5692 16.1942 56.875 14.5833 56.875H11.6667C10.0559 56.875 8.75 55.5692 8.75 53.9583V36.64C8.75 34.6095 9.27984 32.6145 10.2872 30.8516L18.7371 16.0642C19.7757 14.2467 21.7085 13.125 23.8019 13.125ZM20.4167 40.8333C20.4167 41.6386 19.7637 42.2917 18.9583 42.2917C18.1529 42.2917 17.5 41.6386 17.5 40.8333C17.5 40.028 18.1529 39.375 18.9583 39.375C19.7637 39.375 20.4167 40.028 20.4167 40.8333ZM52.5 40.8333C52.5 41.6386 51.847 42.2917 51.0417 42.2917C50.2364 42.2917 49.5833 41.6386 49.5833 40.8333C49.5833 40.028 50.2364 39.375 51.0417 39.375C51.847 39.375 52.5 40.028 52.5 40.8333Z" stroke="#0FD259" stroke-width="3" stroke-linecap="round" stroke-linejoin="round"/>
</svg>
