<svg width="70" height="70" viewBox="0 0 70 70" fill="none" xmlns="http://www.w3.org/2000/svg">
<path d="M9 58.1213H61.5M9 50.2677H61.5M17.2347 11.001C18.445 11.9603 19.2083 13.3635 19.2083 14.9268C19.2083 17.8184 16.5967 20.1625 13.375 20.1625C11.6333 20.1625 10.0699 19.4774 9.00108 18.3911M17.2347 11.001C17.5792 11 17.9447 11 18.3333 11H52.1667C52.5552 11 52.9209 11 53.2654 11.001M17.2347 11.001C14.6832 11.0081 13.2844 11.0679 12.1851 11.5707C11.0874 12.0726 10.195 12.8736 9.6358 13.8587C9.07563 14.8455 9.00898 16.1009 9.00108 18.3911M9.00108 18.3911C9 18.7002 9 19.0283 9 19.3771V34.0371C9 34.3858 9 34.714 9.00108 35.0232M53.2654 11.001C52.055 11.9603 51.2917 13.3635 51.2917 14.9268C51.2917 17.8184 53.9032 20.1625 57.125 20.1625C58.8665 20.1625 60.4302 19.4774 61.4988 18.3911M53.2654 11.001C55.8169 11.0081 57.2157 11.0679 58.315 11.5707C59.4125 12.0726 60.305 12.8736 60.8642 13.8587C61.4244 14.8455 61.4909 16.1009 61.4988 18.3911M9.00108 35.0232C10.0699 33.9368 11.6333 33.2517 13.375 33.2517C16.5967 33.2517 19.2083 35.5957 19.2083 38.4874C19.2083 40.0505 18.445 41.454 17.2347 42.4131M9.00108 35.0232C9.00898 37.3133 9.07563 38.5686 9.6358 39.5555C10.195 40.5406 11.0874 41.3416 12.1851 41.8435C13.2844 42.3464 14.6832 42.4061 17.2347 42.4131M17.2347 42.4131C17.5792 42.4142 17.9447 42.4142 18.3333 42.4142H52.1667C52.5552 42.4142 52.9209 42.4142 53.2654 42.4131M53.2654 42.4131C52.055 41.454 51.2917 40.0505 51.2917 38.4874C51.2917 35.5957 53.9032 33.2517 57.125 33.2517C58.8671 33.2517 60.431 33.9373 61.5 35.0243M53.2654 42.4131C55.8169 42.4061 57.2157 42.3464 58.315 41.8435C59.4125 41.3416 60.305 40.5406 60.8642 39.5555C61.4242 38.5688 61.4921 37.3136 61.5 35.0243M61.5 35.0243C61.5012 34.7148 61.5 34.3863 61.5 34.0371V19.3771C61.5 19.0283 61.5 18.7002 61.4988 18.3911M41.0833 26.7071C41.0833 29.5988 38.4717 31.9428 35.25 31.9428C32.0282 31.9428 29.4167 29.5988 29.4167 26.7071C29.4167 23.8155 32.0282 21.4714 35.25 21.4714C38.4717 21.4714 41.0833 23.8155 41.0833 26.7071Z" stroke="#0FD259" stroke-width="3" stroke-linecap="round" stroke-linejoin="round"/>
</svg>
