<svg width="70" height="70" viewBox="0 0 70 70" fill="none" xmlns="http://www.w3.org/2000/svg">
<path d="M66.004 38.8452C61.4177 38.083 56.6966 38.6511 52.4233 40.482L50.4302 41.3357C50.4302 41.3357 47.7873 39.7856 47.4719 39.6379C45.8278 38.866 37.7337 37.0206 36.8639 36.7511C35.1404 36.2152 33.7379 34.9032 33.0671 33.2544C38.3852 30.9413 41.2037 24.9628 41.6531 18.9516V18.0513H43.9134C44.5946 18.0513 45.1458 17.4992 45.1458 16.8189C45.1458 16.1384 44.5945 15.5865 43.9134 15.5865H42.3728L42.2023 13.8576C41.8017 9.79592 38.9812 6.3815 35.0682 5.22158L32.8217 4.55562V3.7148C32.8217 3.03422 32.2699 2.48242 31.5893 2.48242H24.5742C23.895 2.48242 23.3439 3.03244 23.3427 3.71166L23.341 4.5477L21.0431 5.22965C17.1456 6.38643 14.3306 9.77965 13.9137 13.8238L13.732 15.5865H12.2228C11.5423 15.5865 10.9904 16.1386 10.9904 16.8189C10.9904 17.4993 11.5425 18.0513 12.2228 18.0513H14.5415L14.5432 19.0445C14.9877 24.9467 17.7743 30.8745 23.0314 33.2134C22.3679 34.8975 21.0303 36.2101 19.2683 36.7541C17.7711 37.2162 11.9588 38.4888 11.9588 38.4888C11.958 38.4888 11.9571 38.4888 11.9571 38.4888C11.1539 38.667 4.08761 40.3888 3.27249 46.0983C2.78072 49.5324 2.20691 52.7915 2.20622 52.7979C2.14279 53.1557 2.24232 53.5249 2.47583 53.8041C2.71017 54.0832 3.05593 54.2437 3.42015 54.2437H33.0479L33.1012 64.8554C33.103 65.2068 33.2544 65.5408 33.5176 65.7738C33.7954 66.0197 34.1631 66.1286 34.5294 66.0685C36.4299 65.7575 42.6865 65.3407 48.6922 67.0349C49.095 67.1485 50.0702 67.3467 50.6388 67.4591C50.9242 67.5156 51.2132 67.5306 51.503 67.5046C51.503 67.5046 57.4781 64.831 66.397 66.1746C67.169 66.291 67.8124 65.5392 67.8124 64.7593V40.9827C67.8125 39.9204 67.0526 39.0217 66.004 38.8452ZM34.3678 7.58381C37.3326 8.46318 39.4443 11.0196 39.7492 14.0974L39.8968 15.5865H32.8217V7.12566L34.3678 7.58381ZM30.3569 4.94732V15.5865H25.7819L25.8051 4.94732H30.3569ZM16.3662 14.0733C16.6808 11.0115 18.7917 8.46811 21.7444 7.59188L23.3356 7.12006L23.3171 15.5865H16.2106L16.3662 14.0733ZM17.0049 18.9516V18.0513H39.1902L39.1918 18.8585C38.7071 25.303 35.0886 31.8037 28.0968 31.8037C21.105 31.8037 17.4863 25.3031 17.0049 18.9516ZM28.0967 34.2686C29.0225 34.2686 29.8907 34.1634 30.7196 33.9942C31.1689 35.1865 31.8694 36.2392 32.7625 37.1002L28.1296 40.8624L23.4222 37.06C24.2952 36.2038 24.978 35.1624 25.4161 33.9845C26.2616 34.1611 27.1491 34.2686 28.0967 34.2686ZM16.2699 40.0552L19.4713 51.7792H11.6949V41.1144C12.1346 40.9787 15.2485 40.2902 16.2699 40.0552ZM5.71169 46.4483C6.00783 44.3782 7.64052 43.0038 9.23001 42.1396V51.7791H4.88044C5.0955 50.4874 5.41966 48.4912 5.71169 46.4483ZM22.0261 51.7792L18.6674 39.4776C19.1656 39.3492 20.9109 38.7674 21.3408 38.5492L27.3577 43.4075C27.5831 43.5888 27.8575 43.6803 28.1319 43.6803C28.4071 43.6803 28.6824 43.5888 28.9086 43.4043C28.9086 43.4043 33.1183 40.2682 33.0479 40.2682V51.7792H22.0261ZM39.8705 63.2432C38.4182 63.2432 36.9538 63.3428 35.5128 63.5369V41.2378C39.5631 40.6071 43.7049 41.1368 47.4671 42.7479L49.8412 43.766V64.8094C49.8412 64.8094 43.1096 63.2432 39.8705 63.2432ZM65.3476 63.5417C60.986 62.9423 56.5377 63.2416 52.3061 64.4034V43.2148L53.3941 42.7477C57.1572 41.135 61.3037 40.6134 65.3476 41.236V63.5417Z" fill="#0FD259"/>
<path d="M44.5009 51.7793H39.5712C38.8907 51.7793 38.3388 52.3314 38.3388 53.0117C38.3388 53.6921 38.8909 54.2441 39.5712 54.2441H44.5009C45.1813 54.2441 45.7332 53.692 45.7332 53.0117C45.7332 52.3312 45.1812 51.7793 44.5009 51.7793Z" fill="#0FD259"/>
<path d="M44.5009 56.709H39.5712C38.8907 56.709 38.3388 57.2611 38.3388 57.9414C38.3388 58.6217 38.8909 59.1737 39.5712 59.1737H44.5009C45.1813 59.1737 45.7332 58.6217 45.7332 57.9414C45.7332 57.2611 45.1812 56.709 44.5009 56.709Z" fill="#0FD259"/>
<path d="M60.9331 51.7793H56.0034C55.323 51.7793 54.771 52.3314 54.771 53.0117C54.771 53.6921 55.3231 54.2441 56.0034 54.2441H60.9331C61.6135 54.2441 62.1655 53.692 62.1655 53.0117C62.1655 52.3312 61.6135 51.7793 60.9331 51.7793Z" fill="#0FD259"/>
<path d="M44.5009 46.8496H39.5712C38.8907 46.8496 38.3388 47.4017 38.3388 48.082C38.3388 48.7623 38.8909 49.3144 39.5712 49.3144H44.5009C45.1813 49.3144 45.7332 48.7623 45.7332 48.082C45.7332 47.4017 45.1812 46.8496 44.5009 46.8496Z" fill="#0FD259"/>
<path d="M60.9331 46.8496H56.0034C55.323 46.8496 54.771 47.4017 54.771 48.082C54.771 48.7623 55.3231 49.3144 56.0034 49.3144H60.9331C61.6135 49.3144 62.1655 48.7623 62.1655 48.082C62.1655 47.4017 61.6135 46.8496 60.9331 46.8496Z" fill="#0FD259"/>
<path d="M57.6466 56.709H56.0034C55.323 56.709 54.771 57.2611 54.771 57.9414C54.771 58.6217 55.3231 59.1737 56.0034 59.1737H57.6466C58.3271 59.1737 58.879 58.6217 58.879 57.9414C58.879 57.2611 58.3271 56.709 57.6466 56.709Z" fill="#0FD259"/>
</svg>
