<svg width="41" height="41" viewBox="0 0 41 41" fill="none" xmlns="http://www.w3.org/2000/svg">
<path d="M14.5208 29.8958L9.39584 34.1666V26.4791H4.20514C3.54294 26.4791 2.90788 26.216 2.43963 25.7477C1.97139 25.2795 1.70834 24.6445 1.70834 23.9824V4.20505C1.70834 3.54285 1.97139 2.90779 2.43963 2.43954C2.90788 1.9713 3.54294 1.70825 4.20514 1.70825H31.6699C32.3321 1.70825 32.9671 1.9713 33.4353 2.43954C33.9036 2.90779 34.1667 3.54285 34.1667 4.20505V11.6369" stroke="#0FD259" stroke-linecap="round" stroke-linejoin="round"/>
<path d="M8.54166 8.54175H27.3333" stroke="#0FD259" stroke-linecap="round" stroke-linejoin="round"/>
<path d="M8.54166 15.375H17.0833" stroke="#0FD259" stroke-linecap="round" stroke-linejoin="round"/>
<path d="M29.0417 32.4584C32.8156 32.4584 35.875 29.399 35.875 25.6251C35.875 21.8512 32.8156 18.7917 29.0417 18.7917C25.2678 18.7917 22.2083 21.8512 22.2083 25.6251C22.2083 29.399 25.2678 32.4584 29.0417 32.4584Z" stroke="#0FD259" stroke-linecap="round" stroke-linejoin="round"/>
<path d="M37.5833 37.5834C36.7577 36.5514 35.5268 35.6882 34.0223 35.0865C32.5178 34.4847 30.7961 34.1667 29.0417 34.1667C27.2872 34.1667 25.5656 34.4847 24.061 35.0865C22.5565 35.6882 21.3256 36.5514 20.5 37.5834" stroke="#0FD259" stroke-linecap="round" stroke-linejoin="round"/>
</svg>
