<svg width="41" height="41" viewBox="0 0 41 41" fill="none" xmlns="http://www.w3.org/2000/svg">
<path d="M37.5833 13.6665H34.1667M34.1667 13.6665H32.4583C29.0417 10.2528 23.9167 6.83277 20.5 10.2498M34.1667 13.6665V27.333M20.5 10.2498L15.3742 15.3776C15.2387 15.5132 15.1709 15.581 15.1163 15.641C13.9314 16.9447 13.9319 18.9354 15.1175 20.2385C15.1721 20.2985 15.24 20.3663 15.3755 20.5018C15.5111 20.6372 15.5789 20.7051 15.6389 20.7595C16.9423 21.9439 18.9324 21.9438 20.2354 20.7589C20.2953 20.7044 20.3632 20.6365 20.4986 20.5011L22.2076 18.7921M20.5 10.2498C17.0833 6.83277 11.9583 10.253 8.54166 13.6666H6.83333M34.1667 27.333V32.458H37.5833M34.1667 27.333H29.3348M6.83333 13.6666H3.41666M6.83333 13.6666V27.333M6.83333 27.333H10.25L10.9025 28.6382C11.78 30.3932 14.1977 30.6112 15.375 29.0414C16.3065 29.9729 16.7722 30.4386 17.2747 30.6877C18.2305 31.1612 19.3529 31.1612 20.3087 30.6877C20.8111 30.4386 21.2769 29.9729 22.2083 29.0414L23.0625 29.8955C23.1985 30.0315 23.2666 30.0997 23.3268 30.1545C24.6301 31.3391 26.6199 31.3391 27.9232 30.1545C27.9834 30.0997 28.0515 30.0315 28.1875 29.8955C28.3235 29.7596 28.3916 29.6916 28.4463 29.6313C29.6309 28.3281 29.6309 26.3381 28.4463 25.035C28.3916 24.9747 28.3235 24.9067 28.1875 24.7705L25.625 22.208M6.83333 27.333V32.458H3.41666" stroke="#0FD259" stroke-linecap="round" stroke-linejoin="round"/>
</svg>
