<svg width="41" height="41" viewBox="0 0 41 41" fill="none" xmlns="http://www.w3.org/2000/svg">
<path d="M8.85216 3.85229C8.40778 3.86339 7.98534 4.04775 7.675 4.36601C7.36467 4.68428 7.19103 5.11124 7.19115 5.55576V35.4527C7.19103 35.8972 7.36467 36.3242 7.675 36.6425C7.98533 36.9608 8.40777 37.1451 8.85216 37.1563H32.1053C32.5571 37.1563 32.9904 36.9768 33.3099 36.6573C33.6294 36.3378 33.8089 35.9045 33.8089 35.4527V12.3614H26.9947C26.5504 12.3503 26.1279 12.1659 25.8176 11.8476C25.5073 11.5294 25.3336 11.1024 25.3337 10.6579V3.84375L8.85216 3.85229Z" stroke="#0FD259" stroke-linecap="round" stroke-linejoin="round"/>
<path d="M25.2571 3.85229L33.7662 12.3614" stroke="#0FD259" stroke-linecap="round" stroke-linejoin="round"/>
<path d="M13.5283 19.5842H27.4291" stroke="#0FD259" stroke-linecap="round" stroke-linejoin="round"/>
<path d="M13.5283 29.8906H27.4291" stroke="#0FD259" stroke-linecap="round" stroke-linejoin="round"/>
<path d="M13.5283 24.7375H27.4291" stroke="#0FD259" stroke-linecap="round" stroke-linejoin="round"/>
</svg>
