<svg width="41" height="41" viewBox="0 0 41 41" fill="none" xmlns="http://www.w3.org/2000/svg">
<path d="M34.5937 4.698H6.40624C5.46273 4.698 4.69791 5.46282 4.69791 6.40633V34.5938C4.69791 35.5373 5.46273 36.3022 6.40624 36.3022H34.5937C35.5373 36.3022 36.3021 35.5373 36.3021 34.5938V6.40633C36.3021 5.46282 35.5373 4.698 34.5937 4.698Z" stroke="#0FD259" stroke-linecap="round" stroke-linejoin="round"/>
<path d="M20.5 23.0625C21.9152 23.0625 23.0625 21.9152 23.0625 20.5C23.0625 19.0848 21.9152 17.9375 20.5 17.9375C19.0848 17.9375 17.9375 19.0848 17.9375 20.5C17.9375 21.9152 19.0848 23.0625 20.5 23.0625Z" stroke="#0FD259" stroke-linecap="round" stroke-linejoin="round"/>
<path d="M20.5 17.9374V8.1145" stroke="#0FD259" stroke-linecap="round" stroke-linejoin="round"/>
<path d="M22.7804 21.7368L32.4676 26.9909" stroke="#0FD259" stroke-linecap="round" stroke-linejoin="round"/>
</svg>
