<svg width="30" height="30" viewBox="0 0 30 30" fill="none" xmlns="http://www.w3.org/2000/svg">
<path d="M17.8716 14.7657C17.4028 14.5895 17.4028 13.9164 17.3738 13.4476C17.2566 11.7779 17.8425 9.22887 17.1394 8.14512C16.6416 7.50012 14.2388 7.55918 12.7744 7.6473C12.3638 7.70637 11.866 7.79355 11.5144 7.9698C11.1628 8.14605 10.8113 8.43855 10.8113 8.70199C10.8113 9.08262 11.6906 9.02449 12.0122 9.5223C12.3638 10.0501 12.3638 11.192 12.3638 12.1295C12.3638 13.2132 12.1875 14.6495 11.7488 14.7076C11.0747 14.7367 10.6941 14.0626 10.3425 13.5648C9.63939 12.5982 8.93626 11.3964 8.40845 10.2245C8.14501 9.60949 7.99783 8.93543 7.6172 8.67199C7.03126 8.26137 5.97658 8.2323 4.95095 8.26137C4.01345 8.29043 2.66533 8.17324 2.40189 8.73012C2.19658 9.34512 2.63626 9.93105 2.87064 10.4298C4.07158 13.037 5.36064 15.3226 6.94314 17.4901C8.40845 19.5114 9.7847 21.1229 12.48 21.9723C13.2422 22.2067 16.5816 22.8807 17.2556 21.9723C17.49 21.6207 17.4319 20.8295 17.5491 20.2436C17.6663 19.6576 17.8125 19.0717 18.3694 19.0426C18.8381 19.0136 19.1016 19.4232 19.395 19.7167C19.7175 20.0392 19.981 20.3026 20.2153 20.5961C20.7722 21.1529 21.3581 21.9142 22.0613 22.2076C23.0278 22.6182 24.5222 22.5011 25.9285 22.442C27.0713 22.4129 27.8916 22.1786 27.9797 21.5045C28.0388 20.9767 27.4519 20.2154 27.1003 19.7757C26.221 18.692 25.8113 18.3695 24.8147 17.3729C24.375 16.9332 23.8181 16.4645 23.8181 15.9376C23.7891 15.6151 24.0525 15.3226 24.2869 15.0001C25.3125 13.4767 26.3381 12.3929 27.2756 10.8104C27.5391 10.3417 28.155 9.25793 27.9206 8.73012C27.6572 8.14418 26.1919 8.31949 25.2835 8.31949C24.1116 8.31949 22.5881 8.23137 22.2947 8.46574C21.7378 8.84637 21.5035 9.4623 21.24 10.0482C20.6541 11.3964 19.8628 12.7726 19.0425 13.7982C18.7491 14.1498 18.1931 14.882 17.8706 14.7648L17.8716 14.7657Z" fill="white"/>
</svg>
