<svg width="79" height="79" viewBox="0 0 79 79" fill="none" xmlns="http://www.w3.org/2000/svg">
<path d="M39.5 72.4167C57.6792 72.4167 72.4166 57.6793 72.4166 39.5C72.4166 21.3207 57.6792 6.58337 39.5 6.58337C21.3206 6.58337 6.58331 21.3207 6.58331 39.5C6.58331 44.7657 7.81973 49.7424 10.018 54.1562C10.6022 55.329 10.7967 56.6697 10.458 57.9353L8.49745 65.2629C7.64636 68.4437 10.5564 71.3535 13.7373 70.5026L21.0646 68.5421C22.3304 68.2034 23.671 68.3979 24.8439 68.9818C29.2575 71.1804 34.2343 72.4167 39.5 72.4167Z" stroke="#1C274C" stroke-width="2"/>
<path d="M57.0566 51.0541L39.5185 61.3482L21 51.0389V29.2651L39.5187 19.1466L57.0566 29.2499V51.0541Z" stroke="#0FD259" stroke-width="2"/>
<g clip-path="url(#clip0_4_208)">
<path d="M30.2411 36.9629V32.9273L29.9161 32.9472V30.4616L33.0518 30.4418V32.8897H32.7267V35.2603L30.2411 36.9629Z" fill="#AB5832"/>
<path d="M39.1508 31.8867L30.144 40.937L30.2134 49.3035L48.0029 49.1351L48.0286 40.2156L39.1508 31.8867Z" fill="#FFF3E1"/>
<path d="M29.8071 47.8348L30.4295 47.4919V40.7368L29.8507 41.1233C29.8487 41.1233 29.9141 47.8348 29.8071 47.8348Z" fill="#5F4E47"/>
<path d="M47.6917 41.1016V47.4503L48.314 47.7932V41.3374L47.6917 41.1016Z" fill="#5F4E47"/>
<path d="M39.2122 32.8539L29.8487 41.6169V39.4068L39.2221 30.5289L48.3141 39.944V41.8091L39.2122 32.8539Z" fill="#BCAA93"/>
<path d="M28.9309 39.0283L28.3819 40.0412L29.8546 40.0194C29.8546 40.0194 39.0417 31.084 39.2399 31.0761C39.4797 31.0662 48.3101 40.176 48.3101 40.176L49.6163 40.1561L39.8167 29.5994L38.3777 29.5043L28.9309 39.0283Z" fill="#AB5832"/>
<path d="M27.2363 39.7874C27.0817 39.9757 27.2343 40.0748 27.3591 40.0748C27.484 40.0748 28.923 40.0332 28.923 40.0332L38.8415 30.3823C38.8415 30.3823 39.0695 30.1484 39.232 30.1563C39.4084 30.1643 39.6364 30.3882 39.6364 30.3882L49.6024 40.1581C49.6024 40.1581 50.7382 40.162 50.9185 40.1164C51.1148 40.0689 51.0157 39.8826 50.7738 39.6229C50.5955 39.4306 40.5204 29.4646 40.3539 29.2921C39.8584 28.7807 39.6165 28.4834 39.1488 28.5033C38.679 28.5231 38.4015 28.8699 37.9317 29.302C37.793 29.4329 27.3017 39.7081 27.2363 39.7874Z" fill="#ED6C31"/>
<path d="M44.9762 43.2839H47.0079V41.5932C47.0079 41.5185 46.9931 41.4445 46.9646 41.3755C46.936 41.3064 46.8941 41.2437 46.8412 41.1909C46.7884 41.1381 46.7257 41.0962 46.6567 41.0676C46.5877 41.039 46.5137 41.0243 46.439 41.0243H44.9762V43.2839Z" fill="#A6CFD5"/>
<path d="M44.3657 43.2839V41.0243H42.78C42.7053 41.0243 42.6313 41.039 42.5623 41.0676C42.4933 41.0962 42.4306 41.1381 42.3777 41.1909C42.3249 41.2437 42.283 41.3064 42.2544 41.3755C42.2258 41.4445 42.2111 41.5185 42.2111 41.5932V43.2859H44.3657V43.2839Z" fill="#A6CFD5"/>
<path d="M44.3657 43.9261H42.2111V45.5118C42.2111 45.6627 42.2711 45.8074 42.3777 45.9141C42.4844 46.0208 42.6291 46.0807 42.78 46.0807H44.3657V43.9261Z" fill="#A6CFD5"/>
<path d="M44.9762 43.9261V46.0807H46.439C46.5899 46.0807 46.7346 46.0208 46.8412 45.9141C46.9479 45.8074 47.0079 45.6627 47.0079 45.5118V43.9261H44.9762Z" fill="#A6CFD5"/>
<path d="M33.7277 43.2839H35.7593V41.5932C35.7593 41.5185 35.7446 41.4445 35.716 41.3755C35.6874 41.3064 35.6455 41.2437 35.5927 41.1909C35.5399 41.1381 35.4772 41.0962 35.4082 41.0676C35.3391 41.039 35.2652 41.0243 35.1905 41.0243H33.7277V43.2839Z" fill="#A6CFD5"/>
<path d="M33.1152 43.2839V41.0243H31.5295C31.4548 41.0243 31.3808 41.039 31.3118 41.0676C31.2428 41.0962 31.1801 41.1381 31.1272 41.1909C31.0744 41.2437 31.0325 41.3064 31.0039 41.3755C30.9753 41.4445 30.9606 41.5185 30.9606 41.5932V43.2859H33.1152V43.2839Z" fill="#A6CFD5"/>
<path d="M33.1152 43.9261H30.9626V45.5118C30.9626 45.6627 31.0225 45.8074 31.1292 45.9141C31.2359 46.0208 31.3806 46.0807 31.5315 46.0807H33.1171V43.9261H33.1152Z" fill="#A6CFD5"/>
<path d="M33.7277 43.9261V46.0807H35.1905C35.3413 46.0807 35.486 46.0208 35.5927 45.9141C35.6994 45.8074 35.7593 45.6627 35.7593 45.5118V43.9261H33.7277Z" fill="#A6CFD5"/>
<path d="M36.4214 48.4175C36.4214 48.4175 36.3916 43.5138 36.4214 42.275C36.4511 41.0381 37.6126 39.9678 38.9585 40.0134C40.6234 40.0708 41.4797 41.0064 41.5412 42.2135C41.6026 43.4206 41.6026 48.4928 41.6026 48.4928L36.4214 48.4175Z" fill="#D27857"/>
<path d="M37.0418 48.6832C37.0418 48.6832 37.018 43.4583 37.0418 42.491C37.0715 41.2919 37.9753 40.6616 39.0259 40.721C40.2488 40.7904 40.8534 41.4405 40.9009 42.386C40.9485 43.3295 40.9485 48.6871 40.9485 48.6871L37.0418 48.6832Z" fill="#AB5932"/>
<path d="M40.3163 44.4235C40.3123 43.5633 40.3044 42.8041 40.2925 42.5722C40.2608 41.9479 39.8168 41.4622 38.9545 41.4325C38.2588 41.4087 37.686 41.9518 37.6701 42.5921C37.6642 42.8279 37.6662 43.5692 37.6701 44.4136L40.3163 44.4235Z" fill="#D27857"/>
<path d="M37.6761 45.3888C37.684 46.5404 37.6939 47.6008 37.6939 47.6008L40.3242 47.6088C40.3242 47.6088 40.3242 46.5523 40.3202 45.4007L37.6761 45.3888Z" fill="#D27857"/>
<path d="M40.3241 44.8655C40.3142 45.145 40.4272 45.371 40.7582 45.371C41.0892 45.371 41.2101 45.2164 41.2339 44.9171C41.2538 44.6495 41.0694 44.4116 40.7582 44.4315C40.449 44.4533 40.3321 44.6693 40.3241 44.8655Z" fill="#FFBA02"/>
<path d="M42.223 50.3164C42.223 50.3164 44.3796 50.3382 45.9375 50.2926C47.4954 50.247 48.6233 50.3164 48.8552 50.0825C49.0871 49.8506 49.0831 47.8744 48.0029 47.3393C47.0098 46.8477 46.3676 47.3472 46.0267 47.3809C45.5768 47.4265 45.0198 47.147 44.6115 47.1391C42.9247 47.1034 42.334 48.4294 42.334 48.4294L42.223 50.3164Z" fill="#728037"/>
<path d="M29.3234 50.1538C29.5038 50.3223 30.8813 50.3283 32.5443 50.3164C34.2073 50.3045 35.5453 50.3203 35.5453 50.3203L35.8228 48.6415L35.4858 48.362C35.4858 48.362 35.5235 47.5216 34.463 47.2342C33.7296 47.036 33.0914 47.363 32.475 47.3729C31.8585 47.3848 31.2897 47.1054 30.6039 47.2679C29.9656 47.4185 29.4681 47.8348 29.2659 48.6752C29.1252 49.2579 29.1609 50.0012 29.3234 50.1538Z" fill="#728037"/>
<path d="M35.347 52.0725L35.3609 50.3184H35.4898L35.4878 48.364H42.3717L42.3479 50.3184H42.4985V52.027C42.4965 52.025 35.347 52.0825 35.347 52.0725Z" fill="#B0B0B0"/>
<path d="M42.4966 51.3055V52.025L35.3451 52.0726L35.351 51.2996L42.4966 51.3055Z" fill="#9B9B9B"/>
<path d="M35.4858 49.5573L42.3539 49.5592V50.3164H35.4858V49.5573Z" fill="#9B9B9B"/>
</g>
<defs>
<clipPath id="clip0_4_208">
<rect width="25.371" height="25.371" fill="white" transform="translate(26.4434 27.2625)"/>
</clipPath>
</defs>
</svg>
