<svg width="234" height="51" viewBox="0 0 234 51" fill="none" xmlns="http://www.w3.org/2000/svg">
<g clip-path="url(#clip0_11_531)">
<path d="M41.753 37.444L22.2318 48.9181L1.6059 37.4194V13.1294L22.2322 1.84375L41.753 13.105V37.444Z" stroke="#0FD259" stroke-width="4"/>
<path d="M11.668 21.6349V17.0306L11.2977 17.0533V14.2174L14.8703 14.1948V16.9876H14.4999V19.6923L11.668 21.6349Z" fill="#AB5832"/>
<path d="M21.8189 15.8433L11.5573 26.1688L11.6364 35.7142L31.9044 35.522L31.9337 25.3457L21.8189 15.8433Z" fill="#FFF3E1"/>
<path d="M11.1735 34.0385L11.8826 33.6473V25.9404L11.2232 26.3814C11.2209 26.3814 11.2954 34.0385 11.1735 34.0385Z" fill="#5F4E47"/>
<path d="M31.5499 26.3564V33.5997L32.259 33.991V26.6256L31.5499 26.3564Z" fill="#5F4E47"/>
<path d="M21.8889 16.947L11.2209 26.9447V24.4232L21.9002 14.2944L32.259 25.0361V27.1641L21.8889 16.947Z" fill="#BCAA93"/>
<path d="M10.1753 23.991L9.54977 25.1466L11.2277 25.1217C11.2277 25.1217 21.6947 14.9273 21.9206 14.9183C22.1939 14.907 32.2544 25.3004 32.2544 25.3004L33.7426 25.2777L22.5777 13.2335L20.9382 13.125L10.1753 23.991Z" fill="#AB5832"/>
<path d="M8.2445 24.8571C8.06836 25.072 8.24221 25.1851 8.38449 25.1851C8.52677 25.1851 10.1663 25.1376 10.1663 25.1376L21.4666 14.1268C21.4666 14.1268 21.7263 13.86 21.9115 13.869C22.1125 13.878 22.3722 14.1336 22.3722 14.1336L33.7268 25.28C33.7268 25.28 35.0208 25.2846 35.2263 25.2326C35.4499 25.1783 35.337 24.9657 35.0615 24.6695C34.8582 24.4501 23.3794 13.0798 23.1897 12.883C22.6252 12.2996 22.3497 11.9604 21.8167 11.983C21.2815 12.0056 20.9653 12.4014 20.4301 12.8943C20.2721 13.0436 8.31901 24.7667 8.2445 24.8571Z" fill="#ED6C31"/>
<path d="M28.456 28.8465H30.7708V26.9176C30.7708 26.8324 30.754 26.748 30.7214 26.6692C30.6888 26.5905 30.6411 26.5189 30.5809 26.4586C30.5207 26.3984 30.4493 26.3506 30.3706 26.3179C30.292 26.2853 30.2077 26.2686 30.1226 26.2686H28.456V28.8465Z" fill="#A6CFD5"/>
<path d="M27.7605 28.8465V26.2686H25.9539C25.8687 26.2686 25.7845 26.2853 25.7058 26.3179C25.6272 26.3506 25.5557 26.3984 25.4955 26.4586C25.4354 26.5189 25.3876 26.5905 25.355 26.6692C25.3225 26.748 25.3057 26.8324 25.3057 26.9176V28.8488H27.7605V28.8465Z" fill="#A6CFD5"/>
<path d="M27.7605 29.5791H25.3057V31.3882C25.3057 31.5604 25.374 31.7255 25.4955 31.8472C25.6171 31.9689 25.7819 32.0373 25.9539 32.0373H27.7605V29.5791Z" fill="#A6CFD5"/>
<path d="M28.456 29.5791V32.0373H30.1226C30.2945 32.0373 30.4594 31.9689 30.5809 31.8472C30.7024 31.7255 30.7708 31.5604 30.7708 31.3882V29.5791H28.456Z" fill="#A6CFD5"/>
<path d="M15.6403 28.8465H17.955V26.9176C17.955 26.8324 17.9383 26.748 17.9057 26.6692C17.8731 26.5905 17.8254 26.5189 17.7652 26.4586C17.705 26.3984 17.6336 26.3506 17.5549 26.3179C17.4763 26.2853 17.392 26.2686 17.3069 26.2686H15.6403V28.8465Z" fill="#A6CFD5"/>
<path d="M14.9425 28.8465V26.2686H13.1359C13.0508 26.2686 12.9665 26.2853 12.8879 26.3179C12.8093 26.3506 12.7378 26.3984 12.6776 26.4586C12.6174 26.5189 12.5697 26.5905 12.5371 26.6692C12.5046 26.748 12.4878 26.8324 12.4878 26.9176V28.8488H14.9425V28.8465Z" fill="#A6CFD5"/>
<path d="M14.9425 29.5791H12.4901V31.3882C12.4901 31.5604 12.5583 31.7255 12.6799 31.8472C12.8014 31.9689 12.9663 32.0373 13.1381 32.0373H14.9448V29.5791H14.9425Z" fill="#A6CFD5"/>
<path d="M15.6403 29.5791V32.0373H17.3069C17.4788 32.0373 17.6437 31.9689 17.7652 31.8472C17.8868 31.7255 17.955 31.5604 17.955 31.3882V29.5791H15.6403Z" fill="#A6CFD5"/>
<path d="M18.7093 34.7037C18.7093 34.7037 18.6755 29.109 18.7093 27.6957C18.7432 26.2845 20.0666 25.0634 21.5999 25.1154C23.4969 25.181 24.4724 26.2484 24.5424 27.6255C24.6125 29.0027 24.6125 34.7897 24.6125 34.7897L18.7093 34.7037Z" fill="#D27857"/>
<path d="M19.4162 35.0064C19.4162 35.0064 19.389 29.0454 19.4162 27.9418C19.45 26.5736 20.4798 25.8545 21.6767 25.9224C23.0701 26.0015 23.7588 26.7433 23.813 27.822C23.8672 28.8984 23.8672 35.011 23.8672 35.011L19.4162 35.0064Z" fill="#AB5932"/>
<path d="M23.1468 30.1467C23.1423 29.1653 23.1333 28.2991 23.1197 28.0346C23.0836 27.3222 22.5777 26.7682 21.5954 26.7343C20.8027 26.7071 20.1501 27.3267 20.132 28.0572C20.1252 28.3263 20.1275 29.1721 20.132 30.1354L23.1468 30.1467Z" fill="#D27857"/>
<path d="M20.1388 31.248C20.1479 32.5619 20.1592 33.7718 20.1592 33.7718L23.1559 33.7808C23.1559 33.7808 23.1559 32.5755 23.1514 31.2616L20.1388 31.248Z" fill="#D27857"/>
<path d="M23.1559 30.6509C23.1446 30.9697 23.2733 31.2275 23.6504 31.2275C24.0275 31.2275 24.1653 31.0511 24.1924 30.7097C24.215 30.4044 24.005 30.133 23.6504 30.1556C23.2981 30.1805 23.1649 30.427 23.1559 30.6509Z" fill="#FFBA02"/>
<path d="M25.3192 36.8698C25.3192 36.8698 27.7762 36.8946 29.5513 36.8426C31.3263 36.7906 32.6112 36.8698 32.8754 36.6029C33.1397 36.3383 33.1351 34.0837 31.9044 33.4731C30.773 32.9123 30.0413 33.4822 29.6529 33.5206C29.1403 33.5726 28.5057 33.2538 28.0405 33.2447C26.1187 33.204 25.4457 34.7169 25.4457 34.7169L25.3192 36.8698Z" fill="#728037"/>
<path d="M10.6224 36.6844C10.828 36.8767 12.3975 36.8835 14.2921 36.8699C16.1868 36.8563 17.7111 36.8744 17.7111 36.8744L18.0273 34.959L17.6434 34.6402C17.6434 34.6402 17.6863 33.6813 16.4781 33.3534C15.6426 33.1272 14.9154 33.5004 14.2131 33.5117C13.5108 33.5253 12.8627 33.2064 12.0813 33.3919C11.3541 33.5637 10.7873 34.0386 10.5569 34.9974C10.3966 35.6623 10.4373 36.5103 10.6224 36.6844Z" fill="#728037"/>
<path d="M17.4854 38.8736L17.5011 36.8723H17.6479L17.6457 34.6426H25.4887L25.4615 36.8723H25.6332V38.8216C25.6309 38.8194 17.4854 38.885 17.4854 38.8736Z" fill="#B0B0B0"/>
<path d="M25.6309 37.9985V38.8194L17.4831 38.8736L17.4899 37.9917L25.6309 37.9985Z" fill="#9B9B9B"/>
<path d="M17.6434 36.0039L25.4683 36.0062V36.87H17.6434V36.0039Z" fill="#9B9B9B"/>
<path d="M77.2806 21.6676H73.3806C73.2691 21.0272 73.064 20.4598 72.7653 19.9655C72.4661 19.4643 72.0945 19.0396 71.6494 18.6916C71.2044 18.3435 70.6969 18.0825 70.1271 17.9084C69.5641 17.7274 68.9557 17.6369 68.3023 17.6369C67.141 17.6369 66.1123 17.9293 65.2153 18.5141C64.3188 19.0918 63.6168 19.9412 63.1089 21.062C62.6014 22.1758 62.3477 23.5368 62.3477 25.1449C62.3477 26.7808 62.6014 28.1592 63.1089 29.28C63.6237 30.3939 64.3257 31.2362 65.2153 31.8071C66.1123 32.3709 67.1378 32.6529 68.2918 32.6529C68.9314 32.6529 69.5292 32.5693 70.0853 32.4022C70.6483 32.2282 71.1525 31.9741 71.5971 31.64C72.0491 31.3058 72.4281 30.8951 72.7341 30.4078C73.047 29.9205 73.2622 29.3636 73.3806 28.737L77.2806 28.7579C77.1347 29.7743 76.8181 30.728 76.3317 31.6191C75.8518 32.5102 75.2227 33.2968 74.4441 33.979C73.6655 34.6543 72.7547 35.1834 71.7118 35.5663C70.6694 35.9422 69.5118 36.1302 68.2395 36.1302C66.3624 36.1302 64.6872 35.6951 63.2135 34.8249C61.7398 33.9547 60.5785 32.6981 59.7306 31.0552C58.8822 29.4123 58.4583 27.4422 58.4583 25.1449C58.4583 22.8406 58.8859 20.8705 59.7411 19.2346C60.5959 17.5917 61.7604 16.3351 63.2341 15.4649C64.7079 14.5947 66.3766 14.1596 68.2395 14.1596C69.4283 14.1596 70.5336 14.3267 71.5558 14.6609C72.5776 14.995 73.4884 15.4858 74.2877 16.1332C75.0874 16.7737 75.744 17.5603 76.2588 18.4932C76.78 19.4191 77.1204 20.4772 77.2806 21.6676ZM79.8849 17.6995V14.452H96.9237V17.6995H90.3231V35.8378H86.4855V17.6995H79.8849ZM100.208 35.8378V14.452H108.217C109.858 14.452 111.234 14.7583 112.347 15.3709C113.466 15.9836 114.31 16.8259 114.881 17.8979C115.457 18.9631 115.746 20.1744 115.746 21.5318C115.746 22.9033 115.457 24.1215 114.881 25.1867C114.303 26.2518 113.452 27.0906 112.326 27.7033C111.2 28.3089 109.813 28.6117 108.165 28.6117H102.857V25.4268H107.644C108.603 25.4268 109.389 25.2598 110 24.9256C110.612 24.5914 111.064 24.132 111.356 23.5472C111.655 22.9625 111.804 22.2907 111.804 21.5318C111.804 20.7731 111.655 20.1048 111.356 19.5269C111.064 18.9491 110.609 18.5001 109.99 18.1799C109.378 17.8527 108.589 17.6891 107.623 17.6891H104.077V35.8378H100.208ZM138.189 25.1449C138.189 27.4491 137.758 29.4227 136.896 31.0656C136.041 32.7016 134.873 33.9547 133.392 34.8249C131.919 35.6951 130.247 36.1302 128.377 36.1302C126.507 36.1302 124.831 35.6951 123.351 34.8249C121.877 33.9477 120.709 32.6912 119.847 31.0552C118.992 29.4123 118.564 27.4422 118.564 25.1449C118.564 22.8406 118.992 20.8705 119.847 19.2346C120.709 17.5917 121.877 16.3351 123.351 15.4649C124.831 14.5947 126.507 14.1596 128.377 14.1596C130.247 14.1596 131.919 14.5947 133.392 15.4649C134.873 16.3351 136.041 17.5917 136.896 19.2346C137.758 20.8705 138.189 22.8406 138.189 25.1449ZM134.3 25.1449C134.3 23.5229 134.046 22.1549 133.538 21.0411C133.038 19.9203 132.343 19.0745 131.453 18.5036C130.563 17.9258 129.538 17.6369 128.377 17.6369C127.216 17.6369 126.19 17.9258 125.301 18.5036C124.411 19.0745 123.712 19.9203 123.205 21.0411C122.704 22.1549 122.454 23.5229 122.454 25.1449C122.454 26.7669 122.704 28.1383 123.205 29.2591C123.712 30.373 124.411 31.2188 125.301 31.7966C126.19 32.3675 127.216 32.6529 128.377 32.6529C129.538 32.6529 130.563 32.3675 131.453 31.7966C132.343 31.2188 133.038 30.373 133.538 29.2591C134.046 28.1383 134.3 26.7669 134.3 25.1449ZM141.847 14.452H145.684V29.0294H145.882L155.924 14.452H159.397V35.8378H155.528V21.2708H155.351L145.278 35.8378H141.847V14.452ZM152.692 8.93848H155.518C155.518 10.1568 155.076 11.1453 154.193 11.9041C153.317 12.656 152.129 13.0318 150.627 13.0318C149.139 13.0318 147.954 12.656 147.071 11.9041C146.195 11.1453 145.761 10.1568 145.768 8.93848H148.573C148.573 9.43975 148.726 9.88873 149.031 10.2856C149.344 10.6754 149.876 10.8703 150.627 10.8703C151.364 10.8703 151.889 10.6754 152.202 10.2856C152.522 9.89571 152.685 9.44668 152.692 8.93848ZM162.225 40.9963V32.6737H163.654C164.134 32.2909 164.582 31.7514 164.999 31.0552C165.416 30.3591 165.771 29.4053 166.063 28.194C166.355 26.9827 166.557 25.4164 166.668 23.495L167.231 14.452H180.881V32.6737H183.258V40.9753H179.546V35.8378H165.938V40.9963H162.225ZM168.159 32.6737H177.168V17.6995H170.714L170.38 23.495C170.29 24.9499 170.144 26.2518 169.942 27.4004C169.74 28.5491 169.487 29.562 169.181 30.4391C168.875 31.3093 168.534 32.0542 168.159 32.6737ZM205.493 25.1449C205.493 27.4491 205.062 29.4227 204.2 31.0656C203.345 32.7016 202.177 33.9547 200.696 34.8249C199.223 35.6951 197.551 36.1302 195.68 36.1302C193.81 36.1302 192.135 35.6951 190.654 34.8249C189.18 33.9477 188.013 32.6912 187.15 31.0552C186.295 29.4123 185.868 27.4422 185.868 25.1449C185.868 22.8406 186.295 20.8705 187.15 19.2346C188.013 17.5917 189.18 16.3351 190.654 15.4649C192.135 14.5947 193.81 14.1596 195.68 14.1596C197.551 14.1596 199.223 14.5947 200.696 15.4649C202.177 16.3351 203.345 17.5917 204.2 19.2346C205.062 20.8705 205.493 22.8406 205.493 25.1449ZM201.603 25.1449C201.603 23.5229 201.35 22.1549 200.842 21.0411C200.342 19.9203 199.646 19.0745 198.757 18.5036C197.867 17.9258 196.841 17.6369 195.68 17.6369C194.52 17.6369 193.494 17.9258 192.604 18.5036C191.714 19.0745 191.016 19.9203 190.508 21.0411C190.008 22.1549 189.757 23.5229 189.757 25.1449C189.757 26.7669 190.008 28.1383 190.508 29.2591C191.016 30.373 191.714 31.2188 192.604 31.7966C193.494 32.3675 194.52 32.6529 195.68 32.6529C196.841 32.6529 197.867 32.3675 198.757 31.7966C199.646 31.2188 200.342 30.373 200.842 29.2591C201.35 28.1383 201.603 26.7669 201.603 25.1449ZM209.151 14.452H213.885L220.225 29.9483H220.475L226.815 14.452H231.549V35.8378H227.837V21.1455H227.639L221.737 35.7751H218.963L213.061 21.1142H212.863V35.8378H209.151V14.452Z" fill="white"/>
</g>
<defs>
<clipPath id="clip0_11_531">
<rect width="234" height="51" fill="white"/>
</clipPath>
</defs>
</svg>
