<svg width="234" height="51" viewBox="0 0 234 51" fill="none" xmlns="http://www.w3.org/2000/svg">
<g clip-path="url(#clip0_3_118)">
<path d="M41.753 37.4441L22.2318 48.9182L1.6059 37.4196V13.1295L22.2322 1.84387L41.753 13.1051V37.4441Z" stroke="#0FD259" stroke-width="4"/>
<path d="M11.668 21.6349V17.0307L11.2977 17.0533V14.2175L14.8703 14.1949V16.9877H14.4999V19.6924L11.668 21.6349Z" fill="#AB5832"/>
<path d="M21.819 15.8434L11.5574 26.169L11.6364 35.7143L31.9044 35.5221L31.9338 25.3458L21.819 15.8434Z" fill="#FFF3E1"/>
<path d="M11.1735 34.0387L11.8826 33.6474V25.9406L11.2232 26.3815C11.2209 26.3815 11.2954 34.0387 11.1735 34.0387Z" fill="#5F4E47"/>
<path d="M31.5499 26.3567V33.6L32.259 33.9912V26.6258L31.5499 26.3567Z" fill="#5F4E47"/>
<path d="M21.8889 16.947L11.2209 26.9446V24.4232L21.9002 14.2944L32.259 25.036V27.164L21.8889 16.947Z" fill="#BCAA93"/>
<path d="M10.1753 23.9913L9.54974 25.1468L11.2277 25.122C11.2277 25.122 21.6947 14.9276 21.9205 14.9185C22.1938 14.9072 32.2544 25.3006 32.2544 25.3006L33.7426 25.278L22.5777 13.2338L20.9382 13.1252L10.1753 23.9913Z" fill="#AB5832"/>
<path d="M8.2445 24.8573C8.06836 25.0722 8.24221 25.1852 8.38449 25.1852C8.52677 25.1852 10.1663 25.1378 10.1663 25.1378L21.4666 14.127C21.4666 14.127 21.7263 13.8602 21.9115 13.8692C22.1125 13.8782 22.3722 14.1338 22.3722 14.1338L33.7268 25.2802C33.7268 25.2802 35.0208 25.2848 35.2263 25.2327C35.4499 25.1785 35.337 24.9659 35.0615 24.6696C34.8582 24.4503 23.3794 13.08 23.1897 12.8832C22.6252 12.2998 22.3497 11.9606 21.8167 11.9832C21.2815 12.0058 20.9653 12.4016 20.4301 12.8945C20.2721 13.0438 8.31901 24.7669 8.2445 24.8573Z" fill="#ED6C31"/>
<path d="M28.456 28.8465H30.7708V26.9175C30.7708 26.8323 30.754 26.7479 30.7214 26.6691C30.6888 26.5904 30.6411 26.5189 30.5809 26.4586C30.5207 26.3983 30.4493 26.3505 30.3706 26.3179C30.292 26.2853 30.2077 26.2685 30.1226 26.2685H28.456V28.8465Z" fill="#A6CFD5"/>
<path d="M27.7605 28.8465V26.2685H25.9539C25.8687 26.2685 25.7845 26.2853 25.7058 26.3179C25.6272 26.3505 25.5557 26.3983 25.4955 26.4586C25.4354 26.5189 25.3876 26.5904 25.355 26.6691C25.3225 26.7479 25.3057 26.8323 25.3057 26.9175V28.8488H27.7605V28.8465Z" fill="#A6CFD5"/>
<path d="M27.7605 29.5792H25.3057V31.3883C25.3057 31.5604 25.374 31.7255 25.4955 31.8472C25.6171 31.9689 25.7819 32.0373 25.9539 32.0373H27.7605V29.5792Z" fill="#A6CFD5"/>
<path d="M28.456 29.5792V32.0373H30.1226C30.2945 32.0373 30.4594 31.9689 30.5809 31.8472C30.7024 31.7255 30.7708 31.5604 30.7708 31.3883V29.5792H28.456Z" fill="#A6CFD5"/>
<path d="M15.6403 28.8465H17.955V26.9175C17.955 26.8323 17.9383 26.7479 17.9057 26.6691C17.8731 26.5904 17.8254 26.5189 17.7652 26.4586C17.705 26.3983 17.6336 26.3505 17.5549 26.3179C17.4763 26.2853 17.392 26.2685 17.3069 26.2685H15.6403V28.8465Z" fill="#A6CFD5"/>
<path d="M14.9425 28.8465V26.2685H13.1359C13.0508 26.2685 12.9665 26.2853 12.8879 26.3179C12.8092 26.3505 12.7378 26.3983 12.6776 26.4586C12.6174 26.5189 12.5697 26.5904 12.5371 26.6691C12.5045 26.7479 12.4877 26.8323 12.4877 26.9175V28.8488H14.9425V28.8465Z" fill="#A6CFD5"/>
<path d="M14.9425 29.5792H12.4901V31.3883C12.4901 31.5604 12.5583 31.7255 12.6799 31.8472C12.8014 31.9689 12.9663 32.0373 13.1381 32.0373H14.9448V29.5792H14.9425Z" fill="#A6CFD5"/>
<path d="M15.6403 29.5792V32.0373H17.3069C17.4788 32.0373 17.6437 31.9689 17.7652 31.8472C17.8868 31.7255 17.955 31.5604 17.955 31.3883V29.5792H15.6403Z" fill="#A6CFD5"/>
<path d="M18.7093 34.7035C18.7093 34.7035 18.6755 29.1088 18.7093 27.6954C18.7432 26.2843 20.0666 25.0631 21.5999 25.1151C23.4969 25.1807 24.4724 26.2481 24.5424 27.6253C24.6125 29.0025 24.6125 34.7894 24.6125 34.7894L18.7093 34.7035Z" fill="#D27857"/>
<path d="M19.4162 35.0065C19.4162 35.0065 19.389 29.0455 19.4162 27.9419C19.45 26.5738 20.4798 25.8547 21.6767 25.9225C23.0701 26.0017 23.7588 26.7434 23.813 27.8221C23.8672 28.8985 23.8672 35.0111 23.8672 35.0111L19.4162 35.0065Z" fill="#AB5932"/>
<path d="M23.1468 30.1468C23.1423 29.1653 23.1333 28.2992 23.1197 28.0346C23.0836 27.3223 22.5777 26.7682 21.5954 26.7343C20.8027 26.7072 20.1501 27.3268 20.132 28.0572C20.1252 28.3263 20.1275 29.1721 20.132 30.1355L23.1468 30.1468Z" fill="#D27857"/>
<path d="M20.1388 31.2481C20.1479 32.562 20.1592 33.7718 20.1592 33.7718L23.1559 33.7809C23.1559 33.7809 23.1559 32.5755 23.1514 31.2617L20.1388 31.2481Z" fill="#D27857"/>
<path d="M23.1559 30.6511C23.1446 30.97 23.2733 31.2278 23.6504 31.2278C24.0275 31.2278 24.1653 31.0514 24.1924 30.7099C24.215 30.4046 24.005 30.1333 23.6504 30.1559C23.2981 30.1807 23.1649 30.4272 23.1559 30.6511Z" fill="#FFBA02"/>
<path d="M25.3192 36.8699C25.3192 36.8699 27.7762 36.8948 29.5513 36.8428C31.3263 36.7908 32.6112 36.8699 32.8754 36.6031C33.1397 36.3385 33.1351 34.0839 31.9044 33.4733C30.773 32.9125 30.0413 33.4823 29.6529 33.5208C29.1403 33.5728 28.5057 33.2539 28.0405 33.2449C26.1187 33.2042 25.4457 34.717 25.4457 34.717L25.3192 36.8699Z" fill="#728037"/>
<path d="M10.6224 36.6845C10.828 36.8767 12.3975 36.8835 14.2921 36.8699C16.1868 36.8564 17.7111 36.8745 17.7111 36.8745L18.0273 34.9591L17.6434 34.6402C17.6434 34.6402 17.6863 33.6814 16.4781 33.3535C15.6426 33.1273 14.9154 33.5004 14.2131 33.5118C13.5108 33.5253 12.8627 33.2065 12.0813 33.3919C11.3541 33.5638 10.7873 34.0387 10.5569 34.9975C10.3966 35.6624 10.4373 36.5104 10.6224 36.6845Z" fill="#728037"/>
<path d="M17.4854 38.8735L17.5011 36.8722H17.6479L17.6457 34.6425H25.4887L25.4615 36.8722H25.6332V38.8215C25.6309 38.8193 17.4854 38.8849 17.4854 38.8735Z" fill="#B0B0B0"/>
<path d="M25.6309 37.9983V38.8192L17.4831 38.8735L17.4899 37.9916L25.6309 37.9983Z" fill="#9B9B9B"/>
<path d="M17.6434 36.0038L25.4683 36.0061V36.8699H17.6434V36.0038Z" fill="#9B9B9B"/>
<path d="M77.2806 21.6677H73.3806C73.2691 21.0272 73.064 20.4599 72.7653 19.9656C72.4661 19.4643 72.0945 19.0397 71.6494 18.6916C71.2044 18.3435 70.6969 18.0825 70.1271 17.9085C69.5641 17.7274 68.9557 17.637 68.3023 17.637C67.141 17.637 66.1123 17.9293 65.2153 18.5141C64.3188 19.0919 63.6168 19.9412 63.1089 21.062C62.6014 22.1759 62.3477 23.5368 62.3477 25.145C62.3477 26.7809 62.6014 28.1593 63.1089 29.2801C63.6237 30.3939 64.3257 31.2362 65.2153 31.8071C66.1123 32.371 67.1378 32.6529 68.2918 32.6529C68.9314 32.6529 69.5292 32.5694 70.0853 32.4023C70.6483 32.2283 71.1525 31.9742 71.5971 31.64C72.0491 31.3059 72.4281 30.8951 72.7341 30.4078C73.047 29.9205 73.2622 29.3636 73.3806 28.7371L77.2806 28.758C77.1347 29.7743 76.8181 30.7281 76.3317 31.6192C75.8518 32.5102 75.2227 33.2969 74.4441 33.9791C73.6655 34.6543 72.7547 35.1835 71.7118 35.5663C70.6694 35.9423 69.5118 36.1302 68.2395 36.1302C66.3624 36.1302 64.6872 35.6951 63.2135 34.8249C61.7398 33.9547 60.5785 32.6982 59.7306 31.0553C58.8822 29.4124 58.4583 27.4423 58.4583 25.145C58.4583 22.8407 58.8859 20.8706 59.7411 19.2346C60.5959 17.5917 61.7604 16.3351 63.2341 15.465C64.7079 14.5948 66.3766 14.1597 68.2395 14.1597C69.4283 14.1597 70.5336 14.3268 71.5558 14.6609C72.5776 14.9951 73.4884 15.4858 74.2877 16.1333C75.0874 16.7737 75.744 17.5604 76.2588 18.4932C76.78 19.4191 77.1204 20.4773 77.2806 21.6677ZM79.8849 17.6996V14.4521H96.9237V17.6996H90.3231V35.8378H86.4855V17.6996H79.8849ZM100.208 35.8378V14.4521H108.217C109.858 14.4521 111.234 14.7584 112.347 15.371C113.466 15.9836 114.31 16.8259 114.881 17.898C115.457 18.9631 115.746 20.1744 115.746 21.5319C115.746 22.9033 115.457 24.1216 114.881 25.1867C114.303 26.2518 113.452 27.0907 112.326 27.7033C111.2 28.3089 109.813 28.6118 108.165 28.6118H102.857V25.4269H107.644C108.603 25.4269 109.389 25.2598 110 24.9257C110.612 24.5915 111.064 24.132 111.356 23.5473C111.655 22.9625 111.804 22.2908 111.804 21.5319C111.804 20.7731 111.655 20.1048 111.356 19.527C111.064 18.9492 110.609 18.5002 109.99 18.18C109.378 17.8528 108.589 17.6892 107.623 17.6892H104.077V35.8378H100.208ZM138.189 25.145C138.189 27.4492 137.758 29.4228 136.896 31.0657C136.041 32.7016 134.873 33.9547 133.392 34.8249C131.919 35.6951 130.247 36.1302 128.377 36.1302C126.507 36.1302 124.831 35.6951 123.351 34.8249C121.877 33.9478 120.709 32.6912 119.847 31.0553C118.992 29.4124 118.564 27.4423 118.564 25.145C118.564 22.8407 118.992 20.8706 119.847 19.2346C120.709 17.5917 121.877 16.3351 123.351 15.465C124.831 14.5948 126.507 14.1597 128.377 14.1597C130.247 14.1597 131.919 14.5948 133.392 15.465C134.873 16.3351 136.041 17.5917 136.896 19.2346C137.758 20.8706 138.189 22.8407 138.189 25.145ZM134.3 25.145C134.3 23.5229 134.046 22.155 133.538 21.0412C133.038 19.9204 132.343 19.0745 131.453 18.5037C130.563 17.9259 129.538 17.637 128.377 17.637C127.216 17.637 126.19 17.9259 125.301 18.5037C124.411 19.0745 123.712 19.9204 123.205 21.0412C122.704 22.155 122.454 23.5229 122.454 25.145C122.454 26.767 122.704 28.1384 123.205 29.2592C123.712 30.3731 124.411 31.2189 125.301 31.7966C126.19 32.3675 127.216 32.6529 128.377 32.6529C129.538 32.6529 130.563 32.3675 131.453 31.7966C132.343 31.2189 133.038 30.3731 133.538 29.2592C134.046 28.1384 134.3 26.767 134.3 25.145ZM141.847 14.4521H145.684V29.0295H145.882L155.924 14.4521H159.397V35.8378H155.528V21.2709H155.351L145.278 35.8378H141.847V14.4521ZM152.692 8.93854H155.518C155.518 10.1568 155.076 11.1454 154.193 11.9042C153.317 12.656 152.129 13.0319 150.627 13.0319C149.139 13.0319 147.954 12.656 147.071 11.9042C146.195 11.1454 145.761 10.1568 145.768 8.93854H148.573C148.573 9.43981 148.726 9.88879 149.031 10.2856C149.344 10.6754 149.876 10.8704 150.627 10.8704C151.364 10.8704 151.889 10.6754 152.202 10.2856C152.522 9.89578 152.685 9.44675 152.692 8.93854ZM162.225 40.9963V32.6738H163.654C164.134 32.2909 164.582 31.7514 164.999 31.0553C165.416 30.3591 165.771 29.4054 166.063 28.1941C166.355 26.9828 166.557 25.4165 166.668 23.4951L167.231 14.4521H180.881V32.6738H183.258V40.9754H179.546V35.8378H165.938V40.9963H162.225ZM168.159 32.6738H177.168V17.6996H170.714L170.38 23.4951C170.29 24.95 170.144 26.2518 169.942 27.4005C169.74 28.5491 169.487 29.562 169.181 30.4392C168.875 31.3093 168.534 32.0543 168.159 32.6738ZM205.493 25.145C205.493 27.4492 205.062 29.4228 204.2 31.0657C203.345 32.7016 202.177 33.9547 200.696 34.8249C199.223 35.6951 197.551 36.1302 195.68 36.1302C193.81 36.1302 192.135 35.6951 190.654 34.8249C189.18 33.9478 188.013 32.6912 187.15 31.0553C186.295 29.4124 185.868 27.4423 185.868 25.145C185.868 22.8407 186.295 20.8706 187.15 19.2346C188.013 17.5917 189.18 16.3351 190.654 15.465C192.135 14.5948 193.81 14.1597 195.68 14.1597C197.551 14.1597 199.223 14.5948 200.696 15.465C202.177 16.3351 203.345 17.5917 204.2 19.2346C205.062 20.8706 205.493 22.8407 205.493 25.145ZM201.603 25.145C201.603 23.5229 201.35 22.155 200.842 21.0412C200.342 19.9204 199.646 19.0745 198.757 18.5037C197.867 17.9259 196.841 17.637 195.68 17.637C194.52 17.637 193.494 17.9259 192.604 18.5037C191.714 19.0745 191.016 19.9204 190.508 21.0412C190.008 22.155 189.757 23.5229 189.757 25.145C189.757 26.767 190.008 28.1384 190.508 29.2592C191.016 30.3731 191.714 31.2189 192.604 31.7966C193.494 32.3675 194.52 32.6529 195.68 32.6529C196.841 32.6529 197.867 32.3675 198.757 31.7966C199.646 31.2189 200.342 30.3731 200.842 29.2592C201.35 28.1384 201.603 26.767 201.603 25.145ZM209.151 14.4521H213.885L220.225 29.9484H220.475L226.815 14.4521H231.549V35.8378H227.837V21.1455H227.639L221.737 35.7752H218.963L213.061 21.1142H212.863V35.8378H209.151V14.4521Z" fill="black"/>
</g>
<defs>
<clipPath id="clip0_3_118">
<rect width="234" height="51" fill="white"/>
</clipPath>
</defs>
</svg>
