<svg width="43" height="43" viewBox="0 0 43 43" fill="none" xmlns="http://www.w3.org/2000/svg">
<path d="M37.1048 6.54768C37.1048 6.54768 40.5854 5.19049 40.2953 8.48652C40.1986 9.84373 39.3285 14.5939 38.6517 19.7318L36.3313 34.9518C36.3313 34.9518 36.138 37.1814 34.3977 37.5692C32.6573 37.9569 30.047 36.212 29.5635 35.8242C29.1768 35.5334 22.3123 31.171 19.8952 29.0383C19.2184 28.4566 18.4449 27.2933 19.9919 25.9361L30.1436 16.2419C31.3038 15.0786 32.464 12.3642 27.6298 15.6603L14.0942 24.8698C14.0942 24.8698 12.5473 25.8392 9.64687 24.9667L3.36244 23.0279C3.36244 23.0279 1.04204 21.5738 5.00605 20.1196C14.6744 15.5633 26.5664 10.91 37.1048 6.54768Z" fill="black"/>
</svg>
