<svg width="43" height="43" viewBox="0 0 43 43" fill="none" xmlns="http://www.w3.org/2000/svg">
<path d="M25.616 21.164C24.9441 20.9114 24.9441 19.9466 24.9024 19.2747C24.7345 16.8815 25.5743 13.2278 24.5665 11.6744C23.853 10.7499 20.4089 10.8346 18.31 10.9609C17.7214 11.0456 17.0079 11.1705 16.504 11.4232C16.0001 11.6758 15.4962 12.095 15.4962 12.4726C15.4962 13.0182 16.7566 12.9349 17.2175 13.6484C17.7214 14.4049 17.7214 16.0416 17.7214 17.3854C17.7214 18.9388 17.4688 20.9974 16.8399 21.0807C15.8738 21.1224 15.3282 20.1562 14.8243 19.4427C13.8165 18.0573 12.8087 16.3346 12.0521 14.6549C11.6745 13.7734 11.4636 12.8072 10.918 12.4296C10.0782 11.8411 8.56646 11.7994 7.09639 11.8411C5.75264 11.8827 3.82033 11.7148 3.44274 12.5129C3.14846 13.3944 3.77867 14.2343 4.11461 14.9492C5.83596 18.6861 7.68361 21.9622 9.95186 25.0689C12.0521 27.9661 14.0248 30.276 17.888 31.4934C18.9805 31.8294 23.767 32.7955 24.7331 31.4934C25.069 30.9895 24.9857 29.8554 25.1537 29.0155C25.3217 28.1757 25.5313 27.3359 26.3295 27.2942C27.0014 27.2525 27.379 27.8398 27.7995 28.2604C28.2618 28.7226 28.6394 29.1002 28.9753 29.5208C29.7735 30.319 30.6134 31.4101 31.6212 31.8307C33.0066 32.4193 35.1485 32.2513 37.1641 32.1666C38.8022 32.125 39.978 31.789 40.1043 30.8229C40.1889 30.0664 39.3477 28.9752 38.8438 28.345C37.5834 26.7916 36.9962 26.3294 35.5678 24.901C34.9375 24.2708 34.1394 23.5989 34.1394 22.8437C34.0977 22.3814 34.4753 21.9622 34.8112 21.4999C36.2813 19.3164 37.7514 17.763 39.0951 15.4947C39.4727 14.8229 40.3555 13.2695 40.0196 12.5129C39.642 11.6731 37.5417 11.9244 36.2396 11.9244C34.56 11.9244 32.3764 11.7981 31.9558 12.134C31.1576 12.6796 30.8216 13.5624 30.444 14.4023C29.6042 16.3346 28.4701 18.3072 27.2943 19.7773C26.8737 20.2812 26.0769 21.3306 25.6146 21.1627L25.616 21.164Z" fill="black"/>
</svg>
