<svg width="26" height="26" viewBox="0 0 26 26" fill="none" xmlns="http://www.w3.org/2000/svg">
<path d="M3.28068 10.8333L11.0767 16.0513C11.7716 16.5147 12.1191 16.7463 12.4947 16.8363C12.8266 16.9158 13.1726 16.9158 13.5045 16.8363C13.8801 16.7463 14.2276 16.5147 14.9226 16.0513L22.7186 10.8333M11.1563 4.40787L4.87298 8.35389C4.28048 8.72598 3.98423 8.91203 3.76935 9.16354C3.57917 9.38614 3.43607 9.64498 3.3487 9.92443C3.25 10.2402 3.25 10.59 3.25 11.2896V18.2C3.25 19.4135 3.25 20.0202 3.48616 20.4837C3.69387 20.8913 4.02533 21.2228 4.43302 21.4305C4.89649 21.6667 5.50321 21.6667 6.71667 21.6667H19.2833C20.4968 21.6667 21.1036 21.6667 21.567 21.4305C21.9747 21.2228 22.3062 20.8913 22.5138 20.4837C22.75 20.0202 22.75 19.4135 22.75 18.2V11.2896C22.75 10.59 22.75 10.2402 22.6513 9.92443C22.5639 9.64498 22.4209 9.38614 22.2307 9.16354C22.0158 8.91203 21.7195 8.72598 21.1271 8.35389L14.8437 4.40787C14.175 3.98794 13.8407 3.77797 13.482 3.69613C13.1647 3.62375 12.8353 3.62375 12.518 3.69613C12.1593 3.77797 11.825 3.98794 11.1563 4.40787Z" stroke="#666666" stroke-width="2" stroke-linecap="round" stroke-linejoin="round"/>
</svg>
