<svg width="26" height="26" viewBox="0 0 26 26" fill="none" xmlns="http://www.w3.org/2000/svg">
<path d="M8.66667 11.9167H8.6775M13 11.9167H13.0108M17.3333 11.9167H17.3442M22.75 21.6667L19.1487 19.866C18.8757 19.7295 18.7392 19.6612 18.5961 19.6131C18.4691 19.5705 18.3383 19.5396 18.2056 19.5209C18.0561 19.5 17.9035 19.5 17.5983 19.5H6.71667C5.50321 19.5 4.89649 19.5 4.43302 19.2639C4.02533 19.0562 3.69387 18.7247 3.48616 18.317C3.25 17.8536 3.25 17.2468 3.25 16.0334V7.80004C3.25 6.58659 3.25 5.97987 3.48616 5.5164C3.69387 5.1087 4.02533 4.77725 4.43302 4.56953C4.89649 4.33337 5.50322 4.33337 6.71667 4.33337H19.2833C20.4968 4.33337 21.1036 4.33337 21.567 4.56953C21.9747 4.77725 22.3062 5.1087 22.5138 5.5164C22.75 5.97987 22.75 6.5866 22.75 7.80004V21.6667Z" stroke="#666666" stroke-width="2" stroke-linecap="round" stroke-linejoin="round"/>
</svg>
