<svg width="26" height="26" viewBox="0 0 26 26" fill="none" xmlns="http://www.w3.org/2000/svg">
<path d="M13 12.5962C14.0864 12.5962 15.1283 12.1647 15.8965 11.3965C16.6647 10.6283 17.0962 9.58641 17.0962 8.50003C17.0962 7.41364 16.6647 6.37175 15.8965 5.60356C15.1283 4.83537 14.0864 4.40381 13 4.40381C11.9136 4.40381 10.8717 4.83537 10.1035 5.60356C9.33535 6.37175 8.90378 7.41364 8.90378 8.50003C8.90378 9.58641 9.33535 10.6283 10.1035 11.3965C10.8717 12.1647 11.9136 12.5962 13 12.5962ZM13 14.3959C7.55381 14.3959 4.0625 17.4014 4.0625 18.8647V21.5971H21.9375V18.8647C21.9375 17.0951 18.6323 14.3959 13 14.3959Z" fill="#666666"/>
</svg>
