<svg width="26" height="26" viewBox="0 0 26 26" fill="none" xmlns="http://www.w3.org/2000/svg">
<path d="M13 19.5H13.0108M11.9167 6.5H14.0833M9.96667 22.75H16.0333C17.2468 22.75 17.8536 22.75 18.317 22.5138C18.7247 22.3062 19.0562 21.9747 19.2638 21.567C19.5 21.1036 19.5 20.4968 19.5 19.2833V6.71667C19.5 5.50322 19.5 4.89649 19.2638 4.43302C19.0562 4.02533 18.7247 3.69387 18.317 3.48616C17.8536 3.25 17.2468 3.25 16.0333 3.25H9.96667C8.75322 3.25 8.14649 3.25 7.68302 3.48616C7.27533 3.69387 6.94387 4.02533 6.73616 4.43302C6.5 4.89649 6.5 5.50321 6.5 6.71667V19.2833C6.5 20.4968 6.5 21.1036 6.73616 21.567C6.94387 21.9747 7.27533 22.3062 7.68302 22.5138C8.14649 22.75 8.75321 22.75 9.96667 22.75Z" stroke="#666666" stroke-width="2" stroke-linecap="round" stroke-linejoin="round"/>
</svg>
